<svg width="226" height="36" viewBox="0 0 226 36" fill="none" xmlns="http://www.w3.org/2000/svg">
<path d="M27.112 27.8H11.512L8.536 35H0.568L15.544 1.4H23.224L38.248 35H30.088L27.112 27.8ZM24.664 21.896L19.336 9.032L14.008 21.896H24.664ZM63.142 35L56.662 25.64H56.278H49.51V35H41.734V1.4H56.278C59.254 1.4 61.83 1.896 64.006 2.888C66.214 3.88 67.91 5.288 69.094 7.112C70.278 8.936 70.87 11.096 70.87 13.592C70.87 16.088 70.262 18.248 69.046 20.072C67.862 21.864 66.166 23.24 63.958 24.2L71.494 35H63.142ZM62.998 13.592C62.998 11.704 62.39 10.264 61.174 9.272C59.958 8.248 58.182 7.736 55.846 7.736H49.51V19.448H55.846C58.182 19.448 59.958 18.936 61.174 17.912C62.39 16.888 62.998 15.448 62.998 13.592ZM83.5221 7.736H72.7701V1.4H102.05V7.736H91.2981V35H83.5221V7.736ZM132.25 28.76V35H106.234V1.4H131.626V7.64H113.962V14.936H129.562V20.984H113.962V28.76H132.25ZM169.013 35L168.965 14.84L159.077 31.448H155.573L145.733 15.272V35H138.437V1.4H144.869L157.445 22.28L169.829 1.4H176.213L176.309 35H169.013ZM184.281 1.4H192.057V35H184.281V1.4ZM211.071 35.576C208.415 35.576 205.839 35.224 203.343 34.52C200.879 33.784 198.895 32.84 197.391 31.688L200.031 25.832C201.471 26.888 203.183 27.736 205.167 28.376C207.151 29.016 209.135 29.336 211.119 29.336C213.327 29.336 214.959 29.016 216.015 28.376C217.071 27.704 217.599 26.824 217.599 25.736C217.599 24.936 217.279 24.28 216.639 23.768C216.031 23.224 215.231 22.792 214.239 22.472C213.279 22.152 211.967 21.8 210.303 21.416C207.743 20.808 205.647 20.2 204.015 19.592C202.383 18.984 200.975 18.008 199.791 16.664C198.639 15.32 198.063 13.528 198.063 11.288C198.063 9.336 198.591 7.576 199.647 6.008C200.703 4.408 202.287 3.144 204.399 2.216C206.543 1.288 209.151 0.823999 212.223 0.823999C214.367 0.823999 216.463 1.08 218.511 1.592C220.559 2.104 222.351 2.84 223.887 3.8L221.487 9.704C218.383 7.944 215.279 7.064 212.175 7.064C209.999 7.064 208.383 7.416 207.327 8.12C206.303 8.824 205.791 9.752 205.791 10.904C205.791 12.056 206.383 12.92 207.567 13.496C208.783 14.04 210.623 14.584 213.087 15.128C215.647 15.736 217.743 16.344 219.375 16.952C221.007 17.56 222.399 18.52 223.551 19.832C224.735 21.144 225.327 22.92 225.327 25.16C225.327 27.08 224.783 28.84 223.695 30.44C222.639 32.008 221.039 33.256 218.895 34.184C216.751 35.112 214.143 35.576 211.071 35.576Z" fill="url(#paint0_linear_187_172)"/>
<defs>
<linearGradient id="paint0_linear_187_172" x1="0.926619" y1="10" x2="170.326" y2="9.99998" gradientUnits="userSpaceOnUse">
<stop stop-color="#00F0FF"/>
<stop offset="1" stop-color="#FF1CF7"/>
</linearGradient>
</defs>
</svg>
