<svg width="1676" height="1081" viewBox="0 0 1676 1081" fill="none" xmlns="http://www.w3.org/2000/svg">
<path opacity="0.010101" d="M534.782 533.129C527.005 526.864 525.06 516.099 530.316 508.41L811.125 97.5959C814.822 92.1886 821.385 89.4042 828.224 90.3423L1424.35 172.107C1432.86 173.275 1439.87 179.913 1441.38 188.233L1524 645.562C1525.51 653.881 1521.12 661.766 1513.35 664.714L969.291 871.126C963.049 873.495 955.753 872.225 950.284 867.82L534.782 533.129Z" stroke="url(#paint0_linear_303_2)" stroke-width="3"/>
<path opacity="0.020202" d="M528.423 527.556C520.771 521.173 519.062 510.345 524.501 502.713L813.906 96.5843C817.718 91.2351 824.325 88.5451 831.125 89.5733L1424.22 179.252C1432.71 180.535 1439.57 187.28 1440.89 195.635L1513.09 653.061C1514.41 661.416 1509.85 669.253 1502.02 672.094L954.426 870.721C948.148 872.998 940.901 871.632 935.539 867.159L528.423 527.556Z" stroke="url(#paint1_linear_303_2)" stroke-width="3"/>
<path opacity="0.030303" d="M522.219 521.988C514.698 515.491 513.228 504.608 518.847 497.036L816.726 95.6989C820.653 90.4083 827.303 87.8124 834.065 88.9304L1423.96 186.465C1432.41 187.863 1439.13 194.712 1440.26 203.097L1502.06 660.485C1503.19 668.871 1498.46 676.655 1490.56 679.389L939.627 870.196C933.312 872.383 926.114 870.919 920.859 866.38L522.219 521.988Z" stroke="url(#paint2_linear_303_2)" stroke-width="3"/>
<path opacity="0.040404" d="M516.171 516.428C508.785 509.819 507.556 498.89 513.354 491.384L819.583 94.9404C823.624 89.7091 830.317 87.2069 837.04 88.4144L1423.56 193.745C1431.98 195.257 1438.53 202.205 1439.48 210.617L1490.9 667.832C1491.85 676.243 1486.94 683.972 1478.99 686.598L924.896 869.553C918.545 871.65 911.395 870.09 906.247 865.484L516.171 516.428Z" stroke="url(#paint3_linear_303_2)" stroke-width="3"/>
<path opacity="0.050505" d="M510.278 510.876C503.033 504.16 502.047 493.191 508.02 485.756L822.472 94.3074C826.627 89.1359 833.364 86.7275 840.049 88.0241L1423.01 201.088C1431.4 202.713 1437.8 209.758 1438.56 218.191L1479.63 675.099C1480.39 683.532 1475.31 691.201 1467.3 693.718L910.236 868.792C903.848 870.8 896.745 869.144 891.706 864.473L510.278 510.876Z" stroke="url(#paint4_linear_303_2)" stroke-width="3"/>
<path opacity="0.0606061" d="M504.54 505.333C497.439 498.513 496.698 487.514 502.843 480.154L825.392 93.7991C829.658 88.6881 836.44 86.3733 843.087 87.7588L1422.33 208.49C1430.67 210.229 1436.91 217.365 1437.48 225.815L1468.24 682.283C1468.8 690.733 1463.56 698.338 1455.49 700.746L895.649 867.913C889.224 869.832 882.169 868.081 877.238 863.345L504.54 505.333Z" stroke="url(#paint5_linear_303_2)" stroke-width="3"/>
<path opacity="0.0707071" d="M498.956 499.802C492.005 492.882 491.51 481.862 497.824 474.581L828.338 93.4172C832.717 88.3671 839.543 86.1459 846.153 87.6203L1421.5 215.951C1429.8 217.803 1435.88 225.028 1436.26 233.49L1456.73 689.385C1457.11 697.847 1451.69 705.384 1443.57 707.682L881.138 866.919C874.676 868.749 867.668 866.904 862.846 862.103L498.956 499.802Z" stroke="url(#paint6_linear_303_2)" stroke-width="3"/>
<path opacity="0.0808081" d="M493.526 494.288C486.729 487.271 486.481 476.238 492.96 469.041L831.308 93.1638C835.799 88.1752 842.67 86.0477 849.242 87.6108L1420.52 223.472C1428.78 225.436 1434.7 232.745 1434.89 241.214L1445.1 696.406C1445.29 704.875 1439.7 712.34 1431.54 714.527L866.705 865.814C860.206 867.554 853.244 865.615 848.533 860.751L493.526 494.288Z" stroke="url(#paint7_linear_303_2)" stroke-width="3"/>
<path opacity="0.0909091" d="M488.25 488.789C481.61 481.679 481.61 470.642 488.25 463.533L834.3 93.0353C838.901 88.1089 845.818 86.0753 852.353 87.7271L1419.4 231.046C1427.61 233.121 1433.37 240.51 1433.37 248.982V703.34C1433.37 711.811 1427.61 719.2 1419.4 721.276L852.353 864.595C845.818 866.246 838.901 864.213 834.3 859.286L488.25 488.789Z" stroke="url(#paint8_linear_303_2)" stroke-width="3"/>
<path opacity="0.10101" d="M483.128 483.307C476.649 476.109 476.897 465.077 483.694 458.06L837.309 93.0326C842.021 88.169 848.983 86.2293 855.481 87.9699L1418.13 238.672C1426.3 240.859 1431.88 248.324 1431.69 256.792L1421.52 710.187C1421.33 718.656 1415.41 725.965 1407.15 727.929L838.084 863.264C831.512 864.827 824.641 862.7 820.15 857.711L483.128 483.307Z" stroke="url(#paint9_linear_303_2)" stroke-width="3"/>
<path opacity="0.111111" d="M478.157 477.847C471.844 470.566 472.338 459.546 479.289 452.625L840.333 93.1582C845.154 88.3581 852.163 86.5127 858.625 88.3421L1416.71 246.35C1424.83 248.647 1430.25 256.184 1429.87 264.646L1409.56 716.948C1409.18 725.409 1403.1 732.634 1394.8 734.486L823.901 861.826C817.291 863.3 810.465 861.079 806.086 856.029L478.157 477.847Z" stroke="url(#paint10_linear_303_2)" stroke-width="3"/>
<path opacity="0.121212" d="M473.339 472.407C467.194 465.046 467.935 454.048 475.035 447.228L843.37 93.4079C848.3 88.6718 855.356 86.9211 861.781 88.8396L1415.15 254.074C1423.21 256.482 1428.46 264.087 1427.89 272.537L1397.5 723.617C1396.93 732.067 1390.69 739.204 1382.35 740.943L809.806 860.278C803.159 861.663 796.377 859.348 792.11 854.237L473.339 472.407Z" stroke="url(#paint11_linear_303_2)" stroke-width="3"/>
<path opacity="0.131313" d="M468.672 466.993C462.699 459.557 463.685 448.589 470.93 441.873L846.415 93.786C851.454 89.1145 858.557 87.459 864.945 89.4667L1413.43 261.847C1421.44 264.364 1426.52 272.033 1425.76 280.466L1385.34 730.198C1384.58 738.631 1378.18 745.676 1369.79 747.302L795.802 858.625C789.117 859.922 782.379 857.513 778.225 852.342L468.672 466.993Z" stroke="url(#paint12_linear_303_2)" stroke-width="3"/>
<path opacity="0.141414" d="M464.156 461.605C458.358 454.099 459.588 443.169 466.973 436.561L849.467 94.2895C854.614 89.6835 861.764 88.1235 868.116 90.2208L1411.57 269.663C1419.52 272.289 1424.43 280.018 1423.48 288.429L1373.07 736.687C1372.12 745.099 1365.56 752.048 1357.15 753.559L781.89 856.867C775.167 858.075 768.473 855.573 764.432 850.341L464.156 461.605Z" stroke="url(#paint13_linear_303_2)" stroke-width="3"/>
<path opacity="0.151515" d="M459.791 456.243C454.171 448.672 455.641 437.789 463.162 431.291L852.521 94.9177C857.776 90.3779 864.975 88.9141 871.29 91.1012L1409.56 277.52C1417.45 280.254 1422.18 288.038 1421.05 296.424L1360.7 743.082C1359.57 751.467 1352.86 758.316 1344.4 759.714L768.073 855.005C761.311 856.123 754.662 853.528 750.735 848.237L459.791 456.243Z" stroke="url(#paint14_linear_303_2)" stroke-width="3"/>
<path opacity="0.161616" d="M455.575 450.913C450.135 443.28 451.845 432.452 459.496 426.07L855.576 95.6726C860.939 91.1996 868.185 89.8327 874.464 92.1101L1407.39 285.417C1415.22 288.259 1419.78 296.095 1418.46 304.45L1348.23 749.383C1346.92 757.738 1340.05 764.483 1331.57 765.766L754.353 853.043C747.553 854.071 740.947 851.381 737.135 846.032L455.575 450.913Z" stroke="url(#paint15_linear_303_2)" stroke-width="3"/>
<path opacity="0.171717" d="M451.507 445.615C446.251 437.926 448.196 427.161 455.973 420.897L858.628 96.5535C864.097 92.1481 871.393 90.8788 877.635 93.2469L1405.07 293.353C1412.84 296.302 1417.23 304.186 1415.73 312.506L1335.67 755.589C1334.17 763.909 1327.16 770.547 1318.64 771.715L740.733 850.982C733.893 851.92 727.33 849.135 723.634 843.728L451.507 445.615Z" stroke="url(#paint16_linear_303_2)" stroke-width="3"/>
<path opacity="0.181818" d="M447.588 440.351C442.518 432.61 444.695 421.916 452.593 415.772L861.675 97.5581C867.25 93.2212 874.595 92.0504 880.8 94.5096L1402.6 301.323C1410.31 304.378 1414.52 312.306 1412.83 320.586L1323.02 761.697C1321.33 769.977 1314.18 776.505 1305.63 777.558L727.213 848.821C720.335 849.668 713.815 846.789 710.235 841.324L447.588 440.351Z" stroke="url(#paint17_linear_303_2)" stroke-width="3"/>
<path opacity="0.191919" d="M443.816 435.123C438.933 427.335 441.339 416.719 449.352 410.7L864.713 98.688C870.394 94.4203 877.789 93.3489 883.957 95.8999L1399.98 309.327C1407.62 312.487 1411.65 320.455 1409.79 328.691L1310.27 767.708C1308.4 775.944 1301.11 782.358 1292.54 783.294L713.797 846.564C706.88 847.32 700.402 844.346 696.94 838.824L443.816 435.123Z" stroke="url(#paint18_linear_303_2)" stroke-width="3"/>
<path opacity="0.20202" d="M440.191 429.931C435.497 422.101 438.128 411.571 446.251 405.678L867.74 99.9395C873.527 95.7419 880.971 94.7709 887.101 97.4142L1397.2 317.359C1404.77 320.624 1408.63 328.628 1406.59 336.816L1297.43 773.617C1295.39 781.805 1287.95 788.101 1279.36 788.922L700.487 844.21C693.53 844.875 687.095 841.805 683.751 836.227L440.191 429.931Z" stroke="url(#paint19_linear_303_2)" stroke-width="3"/>
<path opacity="0.212121" d="M436.711 424.782C432.208 416.914 435.06 406.477 443.288 400.714L870.752 101.318C876.644 97.1916 884.139 96.322 890.231 99.0582L1394.27 325.424C1401.77 328.792 1405.45 336.829 1403.23 344.964L1284.51 779.429C1282.29 787.564 1274.72 793.74 1266.11 794.444L687.283 841.767C680.287 842.339 673.895 839.173 670.67 833.54L436.711 424.782Z" stroke="url(#paint20_linear_303_2)" stroke-width="3"/>
<path opacity="0.222222" d="M433.376 419.673C429.065 411.772 432.133 401.435 440.46 395.804L873.748 102.817C879.744 98.7627 887.289 97.9956 893.343 100.825L1391.18 333.512C1398.61 336.984 1402.12 345.049 1399.72 353.128L1271.51 785.136C1269.11 793.215 1261.41 799.267 1252.78 799.854L674.189 839.23C667.153 839.709 660.804 836.447 657.699 830.758L433.376 419.673Z" stroke="url(#paint21_linear_303_2)" stroke-width="3"/>
<path opacity="0.232323" d="M430.185 414.61C426.067 406.681 429.346 396.45 437.768 390.953L876.723 104.441C882.823 100.459 890.419 99.7958 896.435 102.72L1387.94 341.627C1395.29 345.2 1398.63 353.29 1396.06 361.309L1258.42 790.742C1255.85 798.761 1248.02 804.686 1239.37 805.156L661.206 836.605C654.13 836.99 647.824 833.63 644.84 827.887L430.185 414.61Z" stroke="url(#paint22_linear_303_2)" stroke-width="3"/>
<path opacity="0.242424" d="M427.136 409.593C423.212 401.641 426.698 391.522 435.208 386.161L879.677 106.186C885.88 102.279 893.527 101.721 899.503 104.739L1384.55 349.764C1391.82 353.439 1394.99 361.55 1392.25 369.505L1245.25 796.245C1242.51 804.2 1234.56 809.995 1225.89 810.348L648.336 833.893C641.22 834.183 634.956 830.726 632.096 824.929L427.136 409.593Z" stroke="url(#paint23_linear_303_2)" stroke-width="3"/>
<path opacity="0.252525" d="M424.229 404.623C420.5 396.652 424.186 386.651 432.779 381.429L882.604 108.052C888.911 104.219 896.608 103.768 902.544 106.882L1381 357.919C1388.2 361.695 1391.18 369.824 1388.28 377.71L1232 801.642C1229.1 809.528 1221.02 815.19 1212.35 815.426L635.58 831.093C628.424 831.288 622.204 827.732 619.467 821.882L424.229 404.623Z" stroke="url(#paint24_linear_303_2)" stroke-width="3"/>
<path opacity="0.262626" d="M421.463 399.703C417.928 391.717 421.81 381.841 430.481 376.758L885.503 110.038C891.912 106.281 899.66 105.938 905.555 109.149L1377.3 366.093C1384.41 369.967 1387.23 378.111 1384.15 385.926L1218.68 806.932C1215.61 814.747 1207.42 820.274 1198.74 820.392L622.94 828.21C615.744 828.308 609.568 824.652 606.955 818.75L421.463 399.703Z" stroke="url(#paint25_linear_303_2)" stroke-width="3"/>
<path opacity="0.272727" d="M418.836 394.836C415.496 386.841 419.568 377.094 428.311 372.153L888.372 112.145C894.883 108.466 902.681 108.232 908.535 111.54L1373.44 374.283C1380.47 378.256 1383.11 386.411 1379.88 394.151L1205.29 812.117C1202.06 819.857 1193.76 825.246 1185.07 825.246L610.418 825.246C603.183 825.246 597.05 821.49 594.564 815.537L418.836 394.836Z" stroke="url(#paint26_linear_303_2)" stroke-width="3"/>
<path opacity="0.282828" d="M416.347 390.023C413.203 382.023 417.458 372.41 426.267 367.612L891.208 114.372C897.819 110.77 905.668 110.647 911.479 114.053L1369.42 382.486C1376.37 386.557 1378.84 394.72 1375.45 402.382L1191.83 817.193C1188.44 824.855 1180.03 830.103 1171.34 829.985L598.016 822.201C590.741 822.102 584.653 818.246 582.294 812.242L416.347 390.023Z" stroke="url(#paint27_linear_303_2)" stroke-width="3"/>
<path opacity="0.292929" d="M413.995 385.267C411.046 377.267 415.479 367.793 424.349 363.138L894.007 116.718C900.719 113.196 908.618 113.185 914.386 116.69L1365.25 390.701C1372.11 394.869 1374.41 403.037 1370.87 410.618L1178.3 822.161C1174.76 829.742 1166.24 834.848 1157.55 834.612L585.735 819.079C578.421 818.88 572.378 814.923 570.146 808.869L413.995 385.267Z" stroke="url(#paint28_linear_303_2)" stroke-width="3"/>
<path opacity="0.30303" d="M411.779 380.567C409.024 372.57 413.629 363.24 422.555 358.731L896.767 119.179C903.579 115.738 911.528 115.842 917.251 119.447L1360.93 398.924C1367.7 403.187 1369.83 411.357 1366.13 418.853L1164.71 827.018C1161.01 834.514 1152.4 839.475 1143.7 839.121L573.576 815.879C566.222 815.579 560.226 811.518 558.123 805.416L411.779 380.567Z" stroke="url(#paint29_linear_303_2)" stroke-width="3"/>
<path opacity="0.313131" d="M409.696 375.93C407.136 367.941 411.906 358.757 420.882 354.394L899.486 121.76C906.397 118.4 914.395 118.62 920.072 122.326L1356.45 407.156C1363.13 411.514 1365.09 419.682 1361.24 427.091L1151.06 831.766C1147.21 839.175 1138.5 843.989 1129.81 843.516L561.541 812.606C554.149 812.204 548.199 808.04 546.227 801.889L409.696 375.93Z" stroke="url(#paint30_linear_303_2)" stroke-width="3"/>
<path opacity="0.323232" d="M407.747 371.352C405.379 363.375 410.309 354.342 419.329 350.126L902.16 124.454C909.17 121.178 917.217 121.516 922.847 125.322L1351.82 415.39C1358.4 419.842 1360.2 428.006 1356.2 435.325L1137.34 836.4C1133.35 843.719 1124.55 848.385 1115.86 847.794L549.632 809.259C542.201 808.753 536.298 804.485 534.459 798.287L407.747 371.352Z" stroke="url(#paint31_linear_303_2)" stroke-width="3"/>
<path opacity="0.333333" d="M405.928 366.84C403.753 358.88 408.836 350 417.896 345.931L904.789 127.265C911.895 124.074 919.991 124.531 925.572 128.44L1347.03 423.628C1353.52 428.173 1355.15 436.33 1351.01 443.557L1123.57 840.924C1119.44 848.151 1110.55 852.666 1101.87 851.956L537.849 805.843C530.38 805.233 524.526 800.859 522.82 794.615L405.928 366.84Z" stroke="url(#paint32_linear_303_2)" stroke-width="3"/>
<path opacity="0.343434" d="M404.24 362.392C402.256 354.452 407.484 345.73 416.579 341.809L907.368 130.189C914.571 127.083 922.714 127.663 928.245 131.675L1342.09 431.867C1348.48 436.503 1349.94 444.65 1345.67 451.782L1109.75 845.333C1105.47 852.465 1096.51 856.829 1087.83 856.001L526.194 802.358C518.688 801.641 512.883 797.161 511.311 790.873L404.24 362.392Z" stroke="url(#paint33_linear_303_2)" stroke-width="3"/>
<path opacity="0.353535" d="M402.679 358.014C400.885 350.099 406.254 341.536 415.377 337.762L909.896 133.228C917.194 130.21 925.384 130.913 930.863 135.029L1336.99 440.105C1343.28 444.832 1344.58 452.967 1340.17 460.002L1095.87 849.631C1091.46 856.666 1082.42 860.876 1073.76 859.929L514.668 798.808C507.125 797.984 501.371 793.396 499.935 787.064L402.679 358.014Z" stroke="url(#paint34_linear_303_2)" stroke-width="3"/>
<path opacity="0.363636" d="M401.245 353.704C399.639 345.817 405.141 337.416 414.289 333.79L912.369 136.378C919.762 133.448 927.997 134.277 933.423 138.497L1331.74 448.338C1337.93 453.154 1339.07 461.275 1334.53 468.21L1081.95 853.813C1077.41 860.748 1068.29 864.804 1059.64 863.739L503.272 795.192C495.694 794.258 489.991 789.563 488.693 783.188L401.245 353.704Z" stroke="url(#paint35_linear_303_2)" stroke-width="3"/>
<path opacity="0.373737" d="M399.935 349.467C398.516 341.611 404.146 333.374 413.312 329.897L914.787 139.64C922.273 136.8 930.553 137.757 935.923 142.083L1326.34 456.567C1332.43 461.471 1333.41 469.575 1328.73 476.409L1067.98 857.881C1063.31 864.715 1054.13 868.615 1045.49 867.432L492.008 791.515C484.395 790.471 478.745 785.666 477.585 779.251L399.935 349.467Z" stroke="url(#paint36_linear_303_2)" stroke-width="3"/>
<path opacity="0.383838" d="M398.749 345.301C397.514 337.48 403.266 329.409 412.446 326.079L917.145 143.01C924.723 140.262 933.047 141.349 938.36 145.781L1320.78 464.785C1326.77 469.777 1327.59 477.861 1322.79 484.592L1053.97 861.832C1049.17 868.563 1039.93 872.306 1031.31 871.004L480.877 787.776C473.229 786.62 467.634 781.705 466.615 775.249L398.749 345.301Z" stroke="url(#paint37_linear_303_2)" stroke-width="3"/>
<path opacity="0.393939" d="M397.683 341.211C396.632 333.43 402.498 325.525 411.688 322.343L919.442 146.491C927.111 143.835 935.477 145.054 940.731 149.593L1315.08 472.996C1320.95 478.073 1321.61 486.136 1316.7 492.761L1039.92 865.668C1035 872.294 1025.69 875.88 1017.1 874.459L469.879 783.98C462.198 782.71 456.658 777.684 455.781 771.19L397.683 341.211Z" stroke="url(#paint38_linear_303_2)" stroke-width="3"/>
<path opacity="0.40404" d="M396.737 337.197C395.866 329.457 401.842 321.721 411.036 318.685L921.676 150.078C929.435 147.516 937.841 148.869 943.034 153.516L1309.22 481.192C1314.99 486.354 1315.49 494.393 1310.46 500.912L1025.83 869.386C1020.8 875.905 1011.43 879.333 1002.87 877.794L459.015 780.126C451.303 778.741 445.82 773.603 445.086 767.071L396.737 337.197Z" stroke="url(#paint39_linear_303_2)" stroke-width="3"/>
<path opacity="0.414141" d="M395.908 333.262C395.216 325.568 401.295 318.001 410.488 315.111L923.844 153.773C931.691 151.307 940.136 152.797 945.265 157.552L1303.21 489.376C1308.87 494.622 1309.22 502.635 1304.07 509.046L1011.71 872.989C1006.56 879.4 997.145 882.668 988.604 881.012L448.287 776.22C440.543 774.718 435.12 769.467 434.53 762.9L395.908 333.262Z" stroke="url(#paint40_linear_303_2)" stroke-width="3"/>
<path opacity="0.424242" d="M395.194 329.408C394.679 321.762 400.855 314.364 410.044 311.621L925.944 157.574C933.878 155.205 942.359 156.833 947.423 161.698L1297.05 497.544C1302.59 502.871 1302.79 510.858 1297.53 517.159L997.554 876.475C992.293 882.776 982.834 885.885 974.322 884.111L437.694 772.261C429.922 770.641 424.56 765.276 424.115 758.674L395.194 329.408Z" stroke="url(#paint41_linear_303_2)" stroke-width="3"/>
<path opacity="0.434343" d="M394.594 325.635C394.253 318.04 400.52 310.812 409.7 308.213L927.974 161.478C935.993 159.208 944.51 160.977 949.506 165.951L1290.74 505.693C1296.17 511.101 1296.21 519.058 1290.85 525.248L983.371 879.842C978.003 886.032 968.503 888.981 960.021 887.089L427.239 768.251C419.439 766.512 414.14 761.032 413.842 754.397L394.594 325.635Z" stroke="url(#paint42_linear_303_2)" stroke-width="3"/>
<path opacity="0.444444" d="M394.105 321.945C393.936 314.405 400.288 307.347 409.456 304.892L929.931 165.486C938.034 163.316 946.584 165.228 951.509 170.312L1284.28 513.822C1289.6 519.31 1289.49 527.235 1284.02 533.314L969.162 883.092C963.691 889.17 954.153 891.959 945.705 889.95L416.922 764.195C409.096 762.333 403.861 756.738 403.712 750.072L394.105 321.945Z" stroke="url(#paint43_linear_303_2)" stroke-width="3"/>
<path opacity="0.454545" d="M393.725 318.342C393.725 310.858 400.158 303.97 409.308 301.658L931.813 169.596C939.998 167.528 948.579 169.585 953.431 174.78L1277.67 521.93C1282.87 527.495 1282.62 535.388 1277.04 541.353L954.931 886.224C949.359 892.189 939.788 894.817 931.377 892.691L406.743 760.092C398.892 758.108 393.725 752.395 393.725 745.701L393.725 318.342Z" stroke="url(#paint44_linear_303_2)" stroke-width="3"/>
<path opacity="0.464646" d="M393.452 314.824C393.619 307.399 400.126 300.681 409.255 298.51L933.619 173.806C941.884 171.841 950.494 174.046 955.27 179.351L1270.92 530.012C1276 535.654 1275.6 543.513 1269.93 549.364L940.68 889.237C935.011 895.089 925.411 897.556 917.039 895.314L396.703 755.945C388.829 753.836 383.732 748.007 383.882 741.284L393.452 314.824Z" stroke="url(#paint45_linear_303_2)" stroke-width="3"/>
<path opacity="0.474747" d="M393.284 311.393C393.614 304.03 400.191 297.481 409.295 295.451L935.346 178.114C943.69 176.253 952.325 178.608 957.023 184.025L1264.02 538.068C1268.98 543.785 1268.43 551.607 1262.67 557.344L926.411 892.13C920.648 897.868 911.024 900.175 902.693 897.816L386.802 751.755C378.908 749.52 373.882 743.572 374.185 736.824L393.284 311.393Z" stroke="url(#paint46_linear_303_2)" stroke-width="3"/>
<path opacity="0.484848" d="M393.218 308.052C393.71 300.753 400.351 294.373 409.427 292.482L936.992 182.521C945.412 180.766 954.071 183.272 958.687 188.801L1256.97 546.096C1261.81 551.887 1261.11 559.671 1255.26 565.293L912.128 894.906C906.275 900.528 896.631 902.675 888.343 900.2L377.041 747.526C369.129 745.164 364.177 739.097 364.633 732.325L393.218 308.052Z" stroke="url(#paint47_linear_303_2)" stroke-width="3"/>
<path opacity="0.494949" d="M393.252 304.801C393.903 297.568 400.603 291.356 409.647 289.602L938.555 187.023C947.051 185.375 955.73 188.036 960.261 193.677L1249.78 554.093C1254.49 559.956 1253.66 567.701 1247.72 573.207L897.833 897.562C891.894 903.068 882.233 905.055 873.992 902.465L367.421 743.259C359.493 740.767 354.618 734.58 355.228 727.786L393.252 304.801Z" stroke="url(#paint48_linear_303_2)" stroke-width="3"/>
<path opacity="0.50505" d="M393.385 301.645C394.191 294.48 400.946 288.435 409.955 286.817L940.033 191.622C948.601 190.084 957.298 192.9 961.742 198.653L1242.45 562.06C1247.04 567.994 1246.06 575.699 1240.03 581.088L883.53 900.102C877.507 905.491 867.835 907.318 859.642 904.613L357.942 738.958C350 736.335 345.204 730.028 345.97 723.214L393.385 301.645Z" stroke="url(#paint49_linear_303_2)" stroke-width="3"/>
<path opacity="0.515152" d="M393.613 298.581C394.571 291.487 401.377 285.607 410.347 284.124L941.425 196.314C950.063 194.886 958.774 197.861 963.127 203.726L1234.98 569.992C1239.43 575.995 1238.31 583.658 1232.21 588.931L869.221 902.522C863.117 907.795 853.437 909.462 845.296 906.642L348.604 734.622C340.65 731.868 335.937 725.44 336.86 718.608L393.613 298.581Z" stroke="url(#paint50_linear_303_2)" stroke-width="3"/>
<path opacity="0.525253" d="M393.934 295.611C395.042 288.589 401.894 282.874 410.822 281.524L942.728 201.098C951.435 199.781 960.156 202.916 964.415 208.893L1227.36 577.888C1231.69 583.958 1230.43 591.578 1224.25 596.734L854.909 904.822C848.728 909.978 839.044 911.486 830.957 908.553L339.408 730.254C331.445 727.366 326.817 720.817 327.898 713.969L393.934 295.611Z" stroke="url(#paint51_linear_303_2)" stroke-width="3"/>
<path opacity="0.535354" d="M394.346 292.739C395.601 285.79 402.494 280.238 411.378 279.019L943.94 205.973C952.713 204.77 961.442 208.067 965.604 214.156L1219.6 585.747C1223.8 591.883 1222.4 599.459 1216.15 604.497L840.597 907.006C834.342 912.044 824.658 913.394 816.628 910.348L330.353 725.858C322.385 722.835 317.844 716.164 319.084 709.302L394.346 292.739Z" stroke="url(#paint52_linear_303_2)" stroke-width="3"/>
<path opacity="0.545455" d="M394.846 289.963C396.245 283.089 403.175 277.698 412.012 276.61L945.061 210.937C953.897 209.848 962.629 213.309 966.691 219.51L1211.71 593.566C1215.77 599.766 1214.24 607.296 1207.91 612.217L826.288 909.07C819.962 913.991 810.282 915.183 802.311 912.024L321.44 721.433C313.469 718.273 309.02 711.481 310.419 704.607L394.846 289.963Z" stroke="url(#paint53_linear_303_2)" stroke-width="3"/>
<path opacity="0.555556" d="M395.432 287.285C396.972 280.488 403.936 275.257 412.723 274.296L946.087 215.987C954.984 215.015 963.717 218.642 967.674 224.954L1203.67 601.343C1207.6 607.606 1205.93 615.089 1199.54 619.893L811.985 911.016C805.591 915.819 795.918 916.855 788.009 913.583L312.67 716.982C304.699 713.685 300.344 706.77 301.904 699.887L395.432 287.285Z" stroke="url(#paint54_linear_303_2)" stroke-width="3"/>
<path opacity="0.565657" d="M396.101 284.708C397.78 277.989 404.774 272.916 413.507 272.082L947.017 221.126C955.973 220.271 964.702 224.065 968.552 230.488L1195.5 609.078C1199.29 615.402 1197.49 622.838 1191.03 627.523L797.69 912.846C791.231 917.531 781.57 918.411 773.724 915.028L304.042 712.51C296.074 709.074 291.816 702.036 293.538 695.146L396.101 284.708Z" stroke="url(#paint55_linear_303_2)" stroke-width="3"/>
<path opacity="0.575758" d="M396.85 282.231C398.665 275.591 405.685 270.674 414.364 269.964L947.85 226.348C956.862 225.611 965.582 229.575 969.321 236.108L1187.2 616.767C1190.85 623.15 1188.92 630.537 1182.39 635.105L783.406 914.556C776.884 919.124 767.239 919.849 759.46 916.355L295.556 708.014C287.594 704.438 283.437 697.278 285.321 690.383L396.85 282.231Z" stroke="url(#paint56_linear_303_2)" stroke-width="3"/>
<path opacity="0.585859" d="M397.679 279.856C399.625 273.297 406.668 268.534 415.29 267.947L948.584 231.654C957.65 231.037 966.357 235.172 969.982 241.814L1178.76 624.411C1182.27 630.851 1180.21 638.188 1173.63 642.638L769.137 916.151C762.555 920.602 752.928 921.172 745.219 917.569L287.212 703.5C279.26 699.783 275.208 692.5 277.255 685.603L397.679 279.856Z" stroke="url(#paint57_linear_303_2)" stroke-width="3"/>
<path opacity="0.59596" d="M398.582 277.578C400.658 271.099 407.721 266.489 416.284 266.024L949.218 237.035C958.333 236.539 967.023 240.846 970.53 247.598L1170.19 632C1173.56 638.495 1171.36 645.781 1164.73 650.114L754.884 917.623C748.246 921.956 738.641 922.374 731.003 918.661L279.01 698.961C271.071 695.103 267.128 687.698 269.339 680.801L398.582 277.578Z" stroke="url(#paint58_linear_303_2)" stroke-width="3"/>
<path opacity="0.606061" d="M399.558 275.41C401.762 269.013 408.841 264.553 417.343 264.207L949.749 242.502C958.912 242.129 967.58 246.609 970.965 253.468L1161.48 639.544C1164.72 646.093 1162.39 653.327 1155.7 657.543L740.651 918.985C733.958 923.201 724.379 923.466 716.816 919.646L270.95 694.414C263.029 690.412 259.197 682.886 261.572 675.991L399.558 275.41Z" stroke="url(#paint59_linear_303_2)" stroke-width="3"/>
<path opacity="0.616162" d="M400.605 273.345C402.932 267.031 410.026 262.72 418.464 262.49L950.176 248.047C959.384 247.797 968.025 252.452 971.284 259.418L1152.65 647.036C1155.74 653.637 1153.29 660.817 1146.54 664.916L726.441 920.23C719.696 924.329 710.146 924.444 702.659 920.516L263.033 689.851C255.132 685.706 251.416 678.058 253.956 671.169L400.605 273.345Z" stroke="url(#paint60_linear_303_2)" stroke-width="3"/>
<path opacity="0.626263" d="M401.719 271.387C404.167 265.156 411.272 260.991 419.647 260.878L950.498 253.67C959.748 253.544 968.357 258.375 971.487 265.446L1143.69 654.476C1146.64 661.127 1144.06 668.253 1137.26 672.236L712.255 921.362C705.461 925.344 695.943 925.309 688.536 921.275L255.256 685.279C247.38 680.989 243.784 673.221 246.489 666.339L401.719 271.387Z" stroke="url(#paint61_linear_303_2)" stroke-width="3"/>
<path opacity="0.636364" d="M402.897 269.535C405.465 263.388 412.579 259.368 420.887 259.368L950.714 259.368C960.002 259.368 968.574 264.375 971.571 271.55L1134.61 661.861C1137.4 668.559 1134.7 675.631 1127.86 679.497L698.097 922.379C691.257 926.245 681.774 926.061 674.449 921.922L247.621 680.696C239.774 676.262 236.302 668.373 239.172 661.502L402.897 269.535Z" stroke="url(#paint62_linear_303_2)" stroke-width="3"/>
<path opacity="0.646465" d="M404.138 267.789C406.822 261.727 413.942 257.848 422.183 257.96L950.821 265.138C960.145 265.265 968.674 270.449 971.535 277.727L1125.39 669.188C1128.04 675.932 1125.21 682.948 1118.33 686.698L683.97 923.28C677.085 927.031 667.641 926.7 660.401 922.456L240.127 676.105C232.313 671.524 228.968 663.517 232.004 656.658L404.138 267.789Z" stroke="url(#paint63_linear_303_2)" stroke-width="3"/>
<path opacity="0.656566" d="M405.439 266.151C408.235 260.174 415.361 256.436 423.532 256.658L950.82 270.981C960.176 271.235 968.657 276.597 971.377 283.976L1116.06 676.458C1118.56 683.245 1115.6 690.205 1108.68 693.839L669.876 924.07C662.949 927.705 653.547 927.229 646.394 922.882L232.774 671.508C224.998 666.782 221.784 658.656 224.986 651.813L405.439 266.151Z" stroke="url(#paint64_linear_303_2)" stroke-width="3"/>
<path opacity="0.666667" d="M406.796 264.62C409.704 258.728 416.831 255.128 424.933 255.458L950.708 276.892C960.092 277.275 968.521 282.814 971.097 290.292L1106.6 683.665C1108.95 690.495 1105.87 697.396 1098.91 700.916L655.818 924.745C648.851 928.264 639.494 927.644 632.43 923.195L225.561 666.905C217.827 662.032 214.749 653.79 218.117 646.966L406.796 264.62Z" stroke="url(#paint65_linear_303_2)" stroke-width="3"/>
<path opacity="0.676768" d="M408.207 263.2C411.223 257.394 418.351 253.929 426.382 254.366L950.484 282.874C959.893 283.385 968.263 289.103 970.691 296.678L1097.02 690.814C1099.22 697.682 1096.02 704.526 1089.02 707.931L641.799 925.31C634.794 928.715 625.484 927.952 618.512 923.402L218.488 662.301C210.8 657.282 207.862 648.925 211.396 642.121L408.207 263.2Z" stroke="url(#paint66_linear_303_2)" stroke-width="3"/>
<path opacity="0.686869" d="M409.67 261.888C412.791 256.168 419.919 252.836 427.877 253.378L950.147 288.921C959.578 289.563 967.883 295.459 970.159 303.128L1087.32 697.898C1089.37 704.804 1086.05 711.588 1079.01 714.879L627.82 925.764C620.78 929.054 611.52 928.15 604.644 923.5L211.554 657.695C203.917 652.531 201.124 644.06 204.823 637.28L409.67 261.888Z" stroke="url(#paint67_linear_303_2)" stroke-width="3"/>
<path opacity="0.69697" d="M411.18 260.686C414.406 255.051 421.53 251.851 429.416 252.496L949.696 295.033C959.145 295.806 967.379 301.879 969.5 309.641L1077.51 704.918C1079.41 711.859 1075.97 718.583 1068.89 721.761L613.886 926.106C606.811 929.284 597.605 928.24 590.825 923.491L204.76 653.091C197.178 647.781 194.533 639.197 198.398 632.445L411.18 260.686Z" stroke="url(#paint68_linear_303_2)" stroke-width="3"/>
<path opacity="0.707071" d="M412.737 259.596C416.063 254.047 423.184 250.977 430.996 251.723L949.129 301.21C958.593 302.114 966.751 308.365 968.713 316.217L1067.58 711.874C1069.32 718.848 1065.76 725.511 1058.66 728.575L599.997 926.342C592.891 929.406 583.74 928.223 577.06 923.378L198.103 648.49C190.582 643.035 188.09 634.341 192.12 627.619L412.737 259.596Z" stroke="url(#paint69_linear_303_2)" stroke-width="3"/>
<path opacity="0.717172" d="M414.336 258.615C417.761 253.152 424.877 250.209 432.615 251.055L948.446 307.447C957.922 308.483 965.996 314.91 967.796 322.849L1057.54 718.76C1059.13 725.765 1055.45 732.366 1048.31 735.318L586.158 926.466C579.021 929.418 569.929 928.099 563.351 923.158L191.584 643.892C184.129 638.292 181.794 629.491 185.989 622.801L414.336 258.615Z" stroke="url(#paint70_linear_303_2)" stroke-width="3"/>
<path opacity="0.727273" d="M415.976 257.747C419.498 252.369 426.608 249.551 434.27 250.496L947.645 313.745C957.129 314.913 965.114 321.516 966.747 329.54L1047.39 725.579C1048.82 732.613 1045.02 739.151 1037.86 741.991L572.369 926.485C565.205 929.325 556.173 927.871 549.7 922.835L185.202 639.302C177.817 633.558 175.644 624.652 180.003 617.997L415.976 257.747Z" stroke="url(#paint71_linear_303_2)" stroke-width="3"/>
<path opacity="0.737374" d="M417.653 256.989C421.27 251.697 428.372 249.003 435.96 250.043L946.727 320.1C956.214 321.401 964.104 328.178 965.568 336.283L1037.12 732.327C1038.4 739.387 1034.48 745.862 1027.29 748.59L558.635 926.397C551.444 929.125 542.475 927.537 536.109 922.409L178.957 634.719C171.648 628.831 169.64 619.823 174.163 613.207L417.653 256.989Z" stroke="url(#paint72_linear_303_2)" stroke-width="3"/>
<path opacity="0.747475" d="M419.364 256.345C423.074 251.138 430.168 248.565 437.68 249.701L945.689 326.513C955.175 327.948 962.964 334.897 964.255 343.08L1026.75 739.005C1027.87 746.089 1023.84 752.5 1016.62 755.117L544.956 926.204C537.74 928.821 528.837 927.102 522.58 921.882L172.847 630.146C165.619 624.117 163.781 615.009 168.467 608.434L419.364 256.345Z" stroke="url(#paint73_linear_303_2)" stroke-width="3"/>
<path opacity="0.757576" d="M421.107 255.81C424.908 250.689 431.994 248.235 439.429 249.465L944.53 332.979C954.013 334.547 961.693 341.667 962.809 349.925L1016.27 745.609C1017.23 752.714 1013.09 759.059 1005.85 761.566L531.336 925.905C524.097 928.412 515.262 926.562 509.117 921.253L166.873 625.583C159.73 619.412 158.067 610.208 162.914 603.678L421.107 255.81Z" stroke="url(#paint74_linear_303_2)" stroke-width="3"/>
<path opacity="0.767677" d="M422.879 255.39C426.769 250.354 433.846 248.017 441.205 249.339L943.251 339.499C952.726 341.201 960.292 348.49 961.228 356.819L1005.69 752.139C1006.49 759.264 1002.23 765.543 994.972 767.94L517.777 925.504C510.517 927.901 501.752 925.923 495.72 920.525L161.033 621.033C153.981 614.724 152.496 605.426 157.504 598.943L422.879 255.39Z" stroke="url(#paint75_linear_303_2)" stroke-width="3"/>
<path opacity="0.777778" d="M424.677 255.082C428.655 250.131 435.721 247.91 443.005 249.322L941.85 346.071C951.312 347.906 958.758 355.362 959.513 363.758L995.006 758.595C995.648 765.736 991.275 771.948 983.995 774.237L504.282 925.001C497.001 927.289 488.308 925.184 482.392 919.7L155.326 616.499C148.371 610.051 147.069 600.665 152.237 594.231L424.677 255.082Z" stroke="url(#paint76_linear_303_2)" stroke-width="3"/>
<path opacity="0.787879" d="M426.498 254.887C430.562 250.02 437.619 247.913 444.826 249.415L940.326 352.692C949.772 354.661 957.091 362.281 957.661 370.74L984.222 764.974C984.704 772.13 980.217 778.274 972.918 780.454L490.852 924.398C483.552 926.577 474.933 924.346 469.136 918.778L149.752 611.98C142.899 605.397 141.783 595.925 147.11 589.545L426.498 254.887Z" stroke="url(#paint77_linear_303_2)" stroke-width="3"/>
<path opacity="0.79798" d="M428.34 254.803C432.488 250.02 439.535 248.025 446.665 249.615L938.678 359.36C948.105 361.462 955.29 369.243 955.673 377.762L973.339 771.274C973.66 778.442 969.061 784.517 961.744 786.589L477.49 923.692C470.173 925.764 461.629 923.41 455.952 917.758L144.31 607.477C137.564 600.76 136.639 591.207 142.122 584.883L428.34 254.803Z" stroke="url(#paint78_linear_303_2)" stroke-width="3"/>
<path opacity="0.808081" d="M430.2 254.834C434.431 250.134 441.467 248.249 448.521 249.927L936.907 366.075C946.309 368.311 953.355 376.249 953.548 384.823L962.359 777.497C962.52 784.675 957.809 790.68 950.476 792.644L464.198 922.891C456.865 924.855 448.399 922.379 442.845 916.645L138.999 602.994C132.365 596.146 131.635 586.516 137.274 580.251L430.2 254.834Z" stroke="url(#paint79_linear_303_2)" stroke-width="3"/>
<path opacity="0.818182" d="M432.075 254.975C436.387 250.358 443.413 248.583 450.39 250.346L935.01 372.832C944.384 375.201 951.285 383.294 951.285 391.918L951.285 783.638C951.285 790.823 946.462 796.758 939.114 798.615L450.978 921.99C443.63 923.847 435.243 921.25 429.814 915.438L133.819 598.53C127.302 591.553 126.77 581.851 132.563 575.648L432.075 254.975Z" stroke="url(#paint80_linear_303_2)" stroke-width="3"/>
<path opacity="0.828283" d="M433.962 255.231C438.355 250.696 445.37 249.028 452.271 250.876L932.989 379.633C942.33 382.135 949.079 390.379 948.885 399.049L940.119 789.699C939.957 796.889 935.024 802.752 927.662 804.503L437.833 920.994C430.471 922.744 422.166 920.03 416.864 914.14L128.768 594.089C122.374 586.986 122.043 577.216 127.989 571.078L433.962 255.231Z" stroke="url(#paint81_linear_303_2)" stroke-width="3"/>
<path opacity="0.838384" d="M435.859 255.597C440.331 251.145 447.335 249.582 454.161 251.515L930.841 386.474C940.146 389.108 946.738 397.498 946.347 406.21L928.862 795.677C928.54 802.869 923.495 808.659 916.121 810.304L424.765 919.902C417.39 921.547 409.168 918.715 403.995 912.749L123.846 589.67C117.58 582.443 117.454 572.611 123.551 566.541L435.859 255.597Z" stroke="url(#paint82_linear_303_2)" stroke-width="3"/>
<path opacity="0.848485" d="M437.762 256.078C442.312 251.707 449.306 250.249 456.056 252.265L928.567 393.355C937.831 396.121 944.259 404.654 943.67 413.401L917.517 801.573C917.033 808.764 911.879 814.482 904.493 816.021L411.775 918.719C404.389 920.258 396.25 917.311 391.208 911.272L119.052 585.277C112.918 577.93 113.001 568.041 119.246 562.042L437.762 256.078Z" stroke="url(#paint83_linear_303_2)" stroke-width="3"/>
<path opacity="0.858586" d="M439.669 256.669C444.296 252.379 451.281 251.025 457.955 253.122L926.165 400.272C935.384 403.169 941.643 411.839 940.854 420.618L906.086 807.383C905.44 814.571 900.177 820.214 892.78 821.649L398.866 917.441C391.469 918.876 383.416 915.816 378.507 909.704L114.384 580.909C108.388 573.445 108.682 563.504 115.074 557.579L439.669 256.669Z" stroke="url(#paint84_linear_303_2)" stroke-width="3"/>
<path opacity="0.868687" d="M441.578 257.373C446.281 253.164 453.256 251.911 459.855 254.09L923.636 407.225C932.806 410.253 938.891 419.055 937.901 427.861L894.571 813.109C893.763 820.292 888.391 825.859 880.985 827.189L386.04 916.075C378.633 917.405 370.668 914.233 365.893 908.052L109.842 576.569C103.99 568.992 104.498 559.006 111.034 553.157L441.578 257.373Z" stroke="url(#paint85_linear_303_2)" stroke-width="3"/>
<path opacity="0.878788" d="M443.486 258.189C448.264 254.06 455.23 252.909 461.754 255.168L920.979 414.213C930.096 417.37 936.001 426.3 934.808 435.127L882.974 818.749C882.005 825.924 876.525 831.415 869.11 832.641L373.298 914.62C365.883 915.846 358.006 912.563 353.368 906.315L105.426 572.258C99.7212 564.572 100.446 554.546 107.124 548.777L443.486 258.189Z" stroke="url(#paint86_linear_303_2)" stroke-width="3"/>
<path opacity="0.888889" d="M445.388 259.115C450.242 255.067 457.199 254.015 463.648 256.354L918.194 421.231C927.253 424.517 932.973 433.569 931.577 442.411L871.297 824.301C870.166 831.466 864.579 836.879 857.156 838.001L360.643 913.076C353.22 914.198 345.433 910.807 340.933 904.493L101.133 567.977C95.581 560.185 96.5249 550.125 103.342 544.439L445.388 259.115Z" stroke="url(#paint87_linear_303_2)" stroke-width="3"/>
<path opacity="0.89899" d="M447.285 260.153C452.212 256.184 459.161 255.231 465.536 257.649L915.28 428.279C924.277 431.693 929.807 440.862 928.207 449.714L859.543 829.765C858.25 836.917 852.556 842.251 845.126 843.271L348.077 911.446C340.646 912.465 332.95 908.967 328.591 902.59L96.9642 563.728C91.5689 555.834 92.7339 545.747 99.6878 540.146L447.285 260.153Z" stroke="url(#paint88_linear_303_2)" stroke-width="3"/>
<path opacity="0.909091" d="M449.172 261.302C454.172 257.412 461.114 256.557 467.415 259.055L912.237 435.358C921.168 438.898 926.503 448.177 924.7 457.035L847.713 835.141C846.26 842.278 840.459 847.533 833.022 848.449L335.601 909.733C328.164 910.649 320.56 907.046 316.343 900.608L92.9175 559.513C87.6836 551.522 89.0715 541.415 96.1596 535.901L449.172 261.302Z" stroke="url(#paint89_linear_303_2)" stroke-width="3"/>
<path opacity="0.919192" d="M451.047 262.559C456.12 258.748 463.055 257.99 469.283 260.566L909.064 442.46C917.926 446.126 923.062 455.509 921.054 464.366L835.81 840.425C834.196 847.544 828.29 852.718 820.847 853.532L323.217 907.934C315.775 908.748 308.264 905.041 304.19 898.544L88.9922 555.329C83.9241 547.246 85.5363 537.125 92.7558 531.702L451.047 262.559Z" stroke="url(#paint90_linear_303_2)" stroke-width="3"/>
<path opacity="0.929293" d="M452.907 263.927C458.053 260.194 464.982 259.533 471.136 262.186L905.761 449.589C914.549 453.378 919.482 462.86 917.27 471.71L823.835 845.62C822.061 852.719 816.05 857.811 808.603 858.522L310.927 906.055C303.48 906.767 296.063 902.957 292.134 896.403L85.1871 551.183C80.2888 543.012 82.1266 532.883 89.4746 527.553L452.907 263.927Z" stroke="url(#paint91_linear_303_2)" stroke-width="3"/>
<path opacity="0.939394" d="M454.75 265.405C459.968 261.75 466.891 261.184 472.973 263.915L902.329 456.741C911.038 460.652 915.765 470.226 913.35 479.064L811.792 850.724C809.859 857.8 803.742 862.808 796.291 863.417L298.733 904.097C291.282 904.706 283.96 900.796 280.178 894.187L81.5016 547.074C76.7771 538.82 78.8414 528.691 86.3147 523.456L454.75 265.405Z" stroke="url(#paint92_linear_303_2)" stroke-width="3"/>
<path opacity="0.949495" d="M456.573 266.992C461.863 263.414 468.782 262.944 474.79 265.752L898.766 463.916C907.393 467.948 911.909 477.607 909.291 486.427L799.683 855.737C797.59 862.787 791.37 867.711 783.915 868.219L286.636 902.061C279.181 902.568 271.956 898.559 268.321 891.898L77.9346 543.005C73.3876 534.672 75.6788 524.55 83.2745 519.414L456.573 266.992Z" stroke="url(#paint93_linear_303_2)" stroke-width="3"/>
<path opacity="0.959596" d="M458.373 268.684C463.735 265.184 470.65 264.808 476.586 267.693L895.073 471.107C903.614 475.258 907.917 484.996 905.097 493.793L787.509 860.654C785.258 867.676 778.934 872.515 771.476 872.92L274.637 899.946C267.18 900.351 260.052 896.244 256.566 889.534L74.4854 538.973C70.1194 530.567 72.6379 520.459 80.3527 515.423L458.373 268.684Z" stroke="url(#paint94_linear_303_2)" stroke-width="3"/>
<path opacity="0.969697" d="M460.149 270.486C465.583 267.063 472.494 266.781 478.358 269.743L891.25 478.318C899.7 482.587 903.786 492.396 900.766 501.163L775.272 865.479C772.864 872.471 766.437 877.223 758.977 877.527L262.74 897.757C255.28 898.061 248.25 893.858 244.915 887.1L71.1527 534.984C66.971 526.51 69.7165 516.423 77.5471 511.49L460.149 270.486Z" stroke="url(#paint95_linear_303_2)" stroke-width="3"/>
<path opacity="0.979798" d="M461.897 272.392C467.402 269.046 474.312 268.858 480.104 271.897L887.295 485.543C895.652 489.928 899.519 499.801 896.3 508.534L762.977 870.209C760.411 877.168 753.882 881.831 746.421 882.034L250.944 895.493C243.482 895.696 236.551 891.398 233.367 884.595L67.9354 531.035C63.9411 522.499 66.9133 512.44 74.8562 507.612L461.897 272.392Z" stroke="url(#paint96_linear_303_2)" stroke-width="3"/>
<path opacity="0.989899" d="M463.615 274.406C469.192 271.137 476.1 271.043 481.82 274.158L883.21 492.784C891.469 497.283 895.115 507.213 891.698 515.905L750.623 874.845C747.902 881.768 741.271 886.343 733.808 886.444L239.251 893.159C231.789 893.26 224.957 888.869 221.926 882.023L64.8328 527.132C61.0287 518.538 64.2267 508.515 72.2785 503.795L463.615 274.406Z" stroke="url(#paint97_linear_303_2)" stroke-width="3"/>
<path d="M465.301 276.524C470.949 273.332 477.857 273.332 483.506 276.524L878.995 500.038C887.152 504.648 890.574 514.629 886.963 523.274L738.214 879.385C735.338 886.271 728.606 890.755 721.144 890.755H227.663C220.201 890.755 213.469 886.271 210.593 879.385L61.844 523.274C58.2327 514.629 61.6553 504.648 69.8123 500.038L465.301 276.524Z" stroke="url(#paint98_linear_303_2)" stroke-width="3"/>
<defs>
<linearGradient id="paint0_linear_303_2" x1="1097.39" y1="705.972" x2="1043" y2="208.484" gradientUnits="userSpaceOnUse">
<stop stop-color="#FF1CF7"/>
<stop offset="1" stop-color="#00F0FF"/>
</linearGradient>
<linearGradient id="paint1_linear_303_2" x1="1085.98" y1="707.631" x2="1038.52" y2="210.801" gradientUnits="userSpaceOnUse">
<stop stop-color="#FF1CF7"/>
<stop offset="1" stop-color="#00F0FF"/>
</linearGradient>
<linearGradient id="paint2_linear_303_2" x1="1074.58" y1="709.214" x2="1034.01" y2="213.079" gradientUnits="userSpaceOnUse">
<stop stop-color="#FF1CF7"/>
<stop offset="1" stop-color="#00F0FF"/>
</linearGradient>
<linearGradient id="paint3_linear_303_2" x1="1063.19" y1="710.722" x2="1029.47" y2="215.318" gradientUnits="userSpaceOnUse">
<stop stop-color="#FF1CF7"/>
<stop offset="1" stop-color="#00F0FF"/>
</linearGradient>
<linearGradient id="paint4_linear_303_2" x1="1051.81" y1="712.156" x2="1024.9" y2="217.515" gradientUnits="userSpaceOnUse">
<stop stop-color="#FF1CF7"/>
<stop offset="1" stop-color="#00F0FF"/>
</linearGradient>
<linearGradient id="paint5_linear_303_2" x1="1040.44" y1="713.513" x2="1020.31" y2="219.67" gradientUnits="userSpaceOnUse">
<stop stop-color="#FF1CF7"/>
<stop offset="1" stop-color="#00F0FF"/>
</linearGradient>
<linearGradient id="paint6_linear_303_2" x1="1029.09" y1="714.795" x2="1015.69" y2="221.782" gradientUnits="userSpaceOnUse">
<stop stop-color="#FF1CF7"/>
<stop offset="1" stop-color="#00F0FF"/>
</linearGradient>
<linearGradient id="paint7_linear_303_2" x1="1017.75" y1="716.005" x2="1011.07" y2="223.855" gradientUnits="userSpaceOnUse">
<stop stop-color="#FF1CF7"/>
<stop offset="1" stop-color="#00F0FF"/>
</linearGradient>
<linearGradient id="paint8_linear_303_2" x1="1006.43" y1="717.14" x2="1006.43" y2="225.883" gradientUnits="userSpaceOnUse">
<stop stop-color="#FF1CF7"/>
<stop offset="1" stop-color="#00F0FF"/>
</linearGradient>
<linearGradient id="paint9_linear_303_2" x1="995.135" y1="718.201" x2="1001.79" y2="227.87" gradientUnits="userSpaceOnUse">
<stop stop-color="#FF1CF7"/>
<stop offset="1" stop-color="#00F0FF"/>
</linearGradient>
<linearGradient id="paint10_linear_303_2" x1="983.858" y1="719.19" x2="997.151" y2="229.816" gradientUnits="userSpaceOnUse">
<stop stop-color="#FF1CF7"/>
<stop offset="1" stop-color="#00F0FF"/>
</linearGradient>
<linearGradient id="paint11_linear_303_2" x1="972.604" y1="720.105" x2="992.514" y2="231.719" gradientUnits="userSpaceOnUse">
<stop stop-color="#FF1CF7"/>
<stop offset="1" stop-color="#00F0FF"/>
</linearGradient>
<linearGradient id="paint12_linear_303_2" x1="961.375" y1="720.95" x2="987.885" y2="233.584" gradientUnits="userSpaceOnUse">
<stop stop-color="#FF1CF7"/>
<stop offset="1" stop-color="#00F0FF"/>
</linearGradient>
<linearGradient id="paint13_linear_303_2" x1="950.172" y1="721.722" x2="983.268" y2="235.408" gradientUnits="userSpaceOnUse">
<stop stop-color="#FF1CF7"/>
<stop offset="1" stop-color="#00F0FF"/>
</linearGradient>
<linearGradient id="paint14_linear_303_2" x1="938.997" y1="722.423" x2="978.668" y2="237.192" gradientUnits="userSpaceOnUse">
<stop stop-color="#FF1CF7"/>
<stop offset="1" stop-color="#00F0FF"/>
</linearGradient>
<linearGradient id="paint15_linear_303_2" x1="927.851" y1="723.053" x2="974.089" y2="238.94" gradientUnits="userSpaceOnUse">
<stop stop-color="#FF1CF7"/>
<stop offset="1" stop-color="#00F0FF"/>
</linearGradient>
<linearGradient id="paint16_linear_303_2" x1="916.736" y1="723.614" x2="969.535" y2="240.652" gradientUnits="userSpaceOnUse">
<stop stop-color="#FF1CF7"/>
<stop offset="1" stop-color="#00F0FF"/>
</linearGradient>
<linearGradient id="paint17_linear_303_2" x1="905.654" y1="724.105" x2="965.01" y2="242.328" gradientUnits="userSpaceOnUse">
<stop stop-color="#FF1CF7"/>
<stop offset="1" stop-color="#00F0FF"/>
</linearGradient>
<linearGradient id="paint18_linear_303_2" x1="894.605" y1="724.527" x2="960.518" y2="243.971" gradientUnits="userSpaceOnUse">
<stop stop-color="#FF1CF7"/>
<stop offset="1" stop-color="#00F0FF"/>
</linearGradient>
<linearGradient id="paint19_linear_303_2" x1="883.592" y1="724.879" x2="956.064" y2="245.58" gradientUnits="userSpaceOnUse">
<stop stop-color="#FF1CF7"/>
<stop offset="1" stop-color="#00F0FF"/>
</linearGradient>
<linearGradient id="paint20_linear_303_2" x1="872.616" y1="725.166" x2="951.65" y2="247.163" gradientUnits="userSpaceOnUse">
<stop stop-color="#FF1CF7"/>
<stop offset="1" stop-color="#00F0FF"/>
</linearGradient>
<linearGradient id="paint21_linear_303_2" x1="861.678" y1="725.384" x2="947.281" y2="248.716" gradientUnits="userSpaceOnUse">
<stop stop-color="#FF1CF7"/>
<stop offset="1" stop-color="#00F0FF"/>
</linearGradient>
<linearGradient id="paint22_linear_303_2" x1="850.781" y1="725.536" x2="942.961" y2="250.245" gradientUnits="userSpaceOnUse">
<stop stop-color="#FF1CF7"/>
<stop offset="1" stop-color="#00F0FF"/>
</linearGradient>
<linearGradient id="paint23_linear_303_2" x1="839.925" y1="725.624" x2="938.694" y2="251.751" gradientUnits="userSpaceOnUse">
<stop stop-color="#FF1CF7"/>
<stop offset="1" stop-color="#00F0FF"/>
</linearGradient>
<linearGradient id="paint24_linear_303_2" x1="829.111" y1="725.644" x2="934.483" y2="253.236" gradientUnits="userSpaceOnUse">
<stop stop-color="#FF1CF7"/>
<stop offset="1" stop-color="#00F0FF"/>
</linearGradient>
<linearGradient id="paint25_linear_303_2" x1="818.342" y1="725.601" x2="930.33" y2="254.703" gradientUnits="userSpaceOnUse">
<stop stop-color="#FF1CF7"/>
<stop offset="1" stop-color="#00F0FF"/>
</linearGradient>
<linearGradient id="paint26_linear_303_2" x1="807.618" y1="725.495" x2="926.241" y2="256.157" gradientUnits="userSpaceOnUse">
<stop stop-color="#FF1CF7"/>
<stop offset="1" stop-color="#00F0FF"/>
</linearGradient>
<linearGradient id="paint27_linear_303_2" x1="796.941" y1="725.325" x2="922.219" y2="257.598" gradientUnits="userSpaceOnUse">
<stop stop-color="#FF1CF7"/>
<stop offset="1" stop-color="#00F0FF"/>
</linearGradient>
<linearGradient id="paint28_linear_303_2" x1="786.313" y1="725.095" x2="918.266" y2="259.032" gradientUnits="userSpaceOnUse">
<stop stop-color="#FF1CF7"/>
<stop offset="1" stop-color="#00F0FF"/>
</linearGradient>
<linearGradient id="paint29_linear_303_2" x1="775.734" y1="724.802" x2="914.385" y2="260.459" gradientUnits="userSpaceOnUse">
<stop stop-color="#FF1CF7"/>
<stop offset="1" stop-color="#00F0FF"/>
</linearGradient>
<linearGradient id="paint30_linear_303_2" x1="765.206" y1="724.45" x2="910.581" y2="261.887" gradientUnits="userSpaceOnUse">
<stop stop-color="#FF1CF7"/>
<stop offset="1" stop-color="#00F0FF"/>
</linearGradient>
<linearGradient id="paint31_linear_303_2" x1="754.73" y1="724.036" x2="906.855" y2="263.315" gradientUnits="userSpaceOnUse">
<stop stop-color="#FF1CF7"/>
<stop offset="1" stop-color="#00F0FF"/>
</linearGradient>
<linearGradient id="paint32_linear_303_2" x1="744.308" y1="723.565" x2="903.21" y2="264.751" gradientUnits="userSpaceOnUse">
<stop stop-color="#FF1CF7"/>
<stop offset="1" stop-color="#00F0FF"/>
</linearGradient>
<linearGradient id="paint33_linear_303_2" x1="733.94" y1="723.036" x2="899.649" y2="266.196" gradientUnits="userSpaceOnUse">
<stop stop-color="#FF1CF7"/>
<stop offset="1" stop-color="#00F0FF"/>
</linearGradient>
<linearGradient id="paint34_linear_303_2" x1="723.629" y1="722.451" x2="896.175" y2="267.657" gradientUnits="userSpaceOnUse">
<stop stop-color="#FF1CF7"/>
<stop offset="1" stop-color="#00F0FF"/>
</linearGradient>
<linearGradient id="paint35_linear_303_2" x1="713.374" y1="721.808" x2="892.789" y2="269.136" gradientUnits="userSpaceOnUse">
<stop stop-color="#FF1CF7"/>
<stop offset="1" stop-color="#00F0FF"/>
</linearGradient>
<linearGradient id="paint36_linear_303_2" x1="703.178" y1="721.111" x2="889.494" y2="270.639" gradientUnits="userSpaceOnUse">
<stop stop-color="#FF1CF7"/>
<stop offset="1" stop-color="#00F0FF"/>
</linearGradient>
<linearGradient id="paint37_linear_303_2" x1="693.041" y1="720.358" x2="886.293" y2="272.169" gradientUnits="userSpaceOnUse">
<stop stop-color="#FF1CF7"/>
<stop offset="1" stop-color="#00F0FF"/>
</linearGradient>
<linearGradient id="paint38_linear_303_2" x1="682.965" y1="719.554" x2="883.185" y2="273.734" gradientUnits="userSpaceOnUse">
<stop stop-color="#FF1CF7"/>
<stop offset="1" stop-color="#00F0FF"/>
</linearGradient>
<linearGradient id="paint39_linear_303_2" x1="672.951" y1="718.695" x2="880.174" y2="275.335" gradientUnits="userSpaceOnUse">
<stop stop-color="#FF1CF7"/>
<stop offset="1" stop-color="#00F0FF"/>
</linearGradient>
<linearGradient id="paint40_linear_303_2" x1="662.999" y1="717.786" x2="877.26" y2="276.981" gradientUnits="userSpaceOnUse">
<stop stop-color="#FF1CF7"/>
<stop offset="1" stop-color="#00F0FF"/>
</linearGradient>
<linearGradient id="paint41_linear_303_2" x1="653.111" y1="716.827" x2="874.445" y2="278.676" gradientUnits="userSpaceOnUse">
<stop stop-color="#FF1CF7"/>
<stop offset="1" stop-color="#00F0FF"/>
</linearGradient>
<linearGradient id="paint42_linear_303_2" x1="643.288" y1="715.818" x2="871.73" y2="280.425" gradientUnits="userSpaceOnUse">
<stop stop-color="#FF1CF7"/>
<stop offset="1" stop-color="#00F0FF"/>
</linearGradient>
<linearGradient id="paint43_linear_303_2" x1="633.53" y1="714.76" x2="869.115" y2="282.234" gradientUnits="userSpaceOnUse">
<stop stop-color="#FF1CF7"/>
<stop offset="1" stop-color="#00F0FF"/>
</linearGradient>
<linearGradient id="paint44_linear_303_2" x1="623.84" y1="713.656" x2="866.601" y2="284.11" gradientUnits="userSpaceOnUse">
<stop stop-color="#FF1CF7"/>
<stop offset="1" stop-color="#00F0FF"/>
</linearGradient>
<linearGradient id="paint45_linear_303_2" x1="614.217" y1="712.505" x2="864.187" y2="286.057" gradientUnits="userSpaceOnUse">
<stop stop-color="#FF1CF7"/>
<stop offset="1" stop-color="#00F0FF"/>
</linearGradient>
<linearGradient id="paint46_linear_303_2" x1="604.663" y1="711.307" x2="861.874" y2="288.082" gradientUnits="userSpaceOnUse">
<stop stop-color="#FF1CF7"/>
<stop offset="1" stop-color="#00F0FF"/>
</linearGradient>
<linearGradient id="paint47_linear_303_2" x1="595.178" y1="710.066" x2="859.661" y2="290.191" gradientUnits="userSpaceOnUse">
<stop stop-color="#FF1CF7"/>
<stop offset="1" stop-color="#00F0FF"/>
</linearGradient>
<linearGradient id="paint48_linear_303_2" x1="585.764" y1="708.78" x2="857.548" y2="292.39" gradientUnits="userSpaceOnUse">
<stop stop-color="#FF1CF7"/>
<stop offset="1" stop-color="#00F0FF"/>
</linearGradient>
<linearGradient id="paint49_linear_303_2" x1="576.421" y1="707.454" x2="855.532" y2="294.688" gradientUnits="userSpaceOnUse">
<stop stop-color="#FF1CF7"/>
<stop offset="1" stop-color="#00F0FF"/>
</linearGradient>
<linearGradient id="paint50_linear_303_2" x1="567.151" y1="706.086" x2="853.613" y2="297.089" gradientUnits="userSpaceOnUse">
<stop stop-color="#FF1CF7"/>
<stop offset="1" stop-color="#00F0FF"/>
</linearGradient>
<linearGradient id="paint51_linear_303_2" x1="557.953" y1="704.678" x2="851.788" y2="299.599" gradientUnits="userSpaceOnUse">
<stop stop-color="#FF1CF7"/>
<stop offset="1" stop-color="#00F0FF"/>
</linearGradient>
<linearGradient id="paint52_linear_303_2" x1="548.829" y1="703.231" x2="850.057" y2="302.227" gradientUnits="userSpaceOnUse">
<stop stop-color="#FF1CF7"/>
<stop offset="1" stop-color="#00F0FF"/>
</linearGradient>
<linearGradient id="paint53_linear_303_2" x1="539.779" y1="701.746" x2="848.414" y2="304.978" gradientUnits="userSpaceOnUse">
<stop stop-color="#FF1CF7"/>
<stop offset="1" stop-color="#00F0FF"/>
</linearGradient>
<linearGradient id="paint54_linear_303_2" x1="530.805" y1="700.224" x2="846.859" y2="307.859" gradientUnits="userSpaceOnUse">
<stop stop-color="#FF1CF7"/>
<stop offset="1" stop-color="#00F0FF"/>
</linearGradient>
<linearGradient id="paint55_linear_303_2" x1="521.907" y1="698.667" x2="845.387" y2="310.879" gradientUnits="userSpaceOnUse">
<stop stop-color="#FF1CF7"/>
<stop offset="1" stop-color="#00F0FF"/>
</linearGradient>
<linearGradient id="paint56_linear_303_2" x1="513.084" y1="697.074" x2="843.993" y2="314.04" gradientUnits="userSpaceOnUse">
<stop stop-color="#FF1CF7"/>
<stop offset="1" stop-color="#00F0FF"/>
</linearGradient>
<linearGradient id="paint57_linear_303_2" x1="504.34" y1="695.45" x2="842.675" y2="317.354" gradientUnits="userSpaceOnUse">
<stop stop-color="#FF1CF7"/>
<stop offset="1" stop-color="#00F0FF"/>
</linearGradient>
<linearGradient id="paint58_linear_303_2" x1="495.672" y1="693.786" x2="841.427" y2="320.817" gradientUnits="userSpaceOnUse">
<stop stop-color="#FF1CF7"/>
<stop offset="1" stop-color="#00F0FF"/>
</linearGradient>
<linearGradient id="paint59_linear_303_2" x1="487.084" y1="692.098" x2="840.243" y2="324.451" gradientUnits="userSpaceOnUse">
<stop stop-color="#FF1CF7"/>
<stop offset="1" stop-color="#00F0FF"/>
</linearGradient>
<linearGradient id="paint60_linear_303_2" x1="478.574" y1="690.378" x2="839.118" y2="328.253" gradientUnits="userSpaceOnUse">
<stop stop-color="#FF1CF7"/>
<stop offset="1" stop-color="#00F0FF"/>
</linearGradient>
<linearGradient id="paint61_linear_303_2" x1="470.143" y1="688.632" x2="838.045" y2="332.232" gradientUnits="userSpaceOnUse">
<stop stop-color="#FF1CF7"/>
<stop offset="1" stop-color="#00F0FF"/>
</linearGradient>
<linearGradient id="paint62_linear_303_2" x1="461.792" y1="686.857" x2="837.017" y2="336.394" gradientUnits="userSpaceOnUse">
<stop stop-color="#FF1CF7"/>
<stop offset="1" stop-color="#00F0FF"/>
</linearGradient>
<linearGradient id="paint63_linear_303_2" x1="453.522" y1="685.056" x2="836.027" y2="340.742" gradientUnits="userSpaceOnUse">
<stop stop-color="#FF1CF7"/>
<stop offset="1" stop-color="#00F0FF"/>
</linearGradient>
<linearGradient id="paint64_linear_303_2" x1="445.333" y1="683.23" x2="835.067" y2="345.283" gradientUnits="userSpaceOnUse">
<stop stop-color="#FF1CF7"/>
<stop offset="1" stop-color="#00F0FF"/>
</linearGradient>
<linearGradient id="paint65_linear_303_2" x1="437.224" y1="681.377" x2="834.129" y2="350.021" gradientUnits="userSpaceOnUse">
<stop stop-color="#FF1CF7"/>
<stop offset="1" stop-color="#00F0FF"/>
</linearGradient>
<linearGradient id="paint66_linear_303_2" x1="429.198" y1="679.504" x2="833.203" y2="354.964" gradientUnits="userSpaceOnUse">
<stop stop-color="#FF1CF7"/>
<stop offset="1" stop-color="#00F0FF"/>
</linearGradient>
<linearGradient id="paint67_linear_303_2" x1="421.253" y1="677.608" x2="832.281" y2="360.113" gradientUnits="userSpaceOnUse">
<stop stop-color="#FF1CF7"/>
<stop offset="1" stop-color="#00F0FF"/>
</linearGradient>
<linearGradient id="paint68_linear_303_2" x1="413.391" y1="675.692" x2="831.352" y2="365.473" gradientUnits="userSpaceOnUse">
<stop stop-color="#FF1CF7"/>
<stop offset="1" stop-color="#00F0FF"/>
</linearGradient>
<linearGradient id="paint69_linear_303_2" x1="405.61" y1="673.757" x2="830.406" y2="371.049" gradientUnits="userSpaceOnUse">
<stop stop-color="#FF1CF7"/>
<stop offset="1" stop-color="#00F0FF"/>
</linearGradient>
<linearGradient id="paint70_linear_303_2" x1="397.913" y1="671.803" x2="829.433" y2="376.841" gradientUnits="userSpaceOnUse">
<stop stop-color="#FF1CF7"/>
<stop offset="1" stop-color="#00F0FF"/>
</linearGradient>
<linearGradient id="paint71_linear_303_2" x1="390.299" y1="669.832" x2="828.42" y2="382.853" gradientUnits="userSpaceOnUse">
<stop stop-color="#FF1CF7"/>
<stop offset="1" stop-color="#00F0FF"/>
</linearGradient>
<linearGradient id="paint72_linear_303_2" x1="382.769" y1="667.846" x2="827.357" y2="389.085" gradientUnits="userSpaceOnUse">
<stop stop-color="#FF1CF7"/>
<stop offset="1" stop-color="#00F0FF"/>
</linearGradient>
<linearGradient id="paint73_linear_303_2" x1="375.321" y1="665.846" x2="826.231" y2="395.541" gradientUnits="userSpaceOnUse">
<stop stop-color="#FF1CF7"/>
<stop offset="1" stop-color="#00F0FF"/>
</linearGradient>
<linearGradient id="paint74_linear_303_2" x1="367.958" y1="663.83" x2="825.031" y2="402.217" gradientUnits="userSpaceOnUse">
<stop stop-color="#FF1CF7"/>
<stop offset="1" stop-color="#00F0FF"/>
</linearGradient>
<linearGradient id="paint75_linear_303_2" x1="360.678" y1="661.804" x2="823.743" y2="409.115" gradientUnits="userSpaceOnUse">
<stop stop-color="#FF1CF7"/>
<stop offset="1" stop-color="#00F0FF"/>
</linearGradient>
<linearGradient id="paint76_linear_303_2" x1="353.482" y1="659.767" x2="822.355" y2="416.235" gradientUnits="userSpaceOnUse">
<stop stop-color="#FF1CF7"/>
<stop offset="1" stop-color="#00F0FF"/>
</linearGradient>
<linearGradient id="paint77_linear_303_2" x1="346.37" y1="657.72" x2="820.854" y2="423.572" gradientUnits="userSpaceOnUse">
<stop stop-color="#FF1CF7"/>
<stop offset="1" stop-color="#00F0FF"/>
</linearGradient>
<linearGradient id="paint78_linear_303_2" x1="339.342" y1="655.663" x2="819.227" y2="431.123" gradientUnits="userSpaceOnUse">
<stop stop-color="#FF1CF7"/>
<stop offset="1" stop-color="#00F0FF"/>
</linearGradient>
<linearGradient id="paint79_linear_303_2" x1="332.398" y1="653.601" x2="817.461" y2="438.886" gradientUnits="userSpaceOnUse">
<stop stop-color="#FF1CF7"/>
<stop offset="1" stop-color="#00F0FF"/>
</linearGradient>
<linearGradient id="paint80_linear_303_2" x1="325.538" y1="651.53" x2="815.543" y2="446.853" gradientUnits="userSpaceOnUse">
<stop stop-color="#FF1CF7"/>
<stop offset="1" stop-color="#00F0FF"/>
</linearGradient>
<linearGradient id="paint81_linear_303_2" x1="318.762" y1="649.455" x2="813.461" y2="455.022" gradientUnits="userSpaceOnUse">
<stop stop-color="#FF1CF7"/>
<stop offset="1" stop-color="#00F0FF"/>
</linearGradient>
<linearGradient id="paint82_linear_303_2" x1="312.07" y1="647.376" x2="811.201" y2="463.382" gradientUnits="userSpaceOnUse">
<stop stop-color="#FF1CF7"/>
<stop offset="1" stop-color="#00F0FF"/>
</linearGradient>
<linearGradient id="paint83_linear_303_2" x1="305.461" y1="645.295" x2="808.751" y2="471.93" gradientUnits="userSpaceOnUse">
<stop stop-color="#FF1CF7"/>
<stop offset="1" stop-color="#00F0FF"/>
</linearGradient>
<linearGradient id="paint84_linear_303_2" x1="298.936" y1="643.211" x2="806.099" y2="480.652" gradientUnits="userSpaceOnUse">
<stop stop-color="#FF1CF7"/>
<stop offset="1" stop-color="#00F0FF"/>
</linearGradient>
<linearGradient id="paint85_linear_303_2" x1="292.495" y1="641.128" x2="803.234" y2="489.543" gradientUnits="userSpaceOnUse">
<stop stop-color="#FF1CF7"/>
<stop offset="1" stop-color="#00F0FF"/>
</linearGradient>
<linearGradient id="paint86_linear_303_2" x1="286.137" y1="639.046" x2="800.144" y2="498.592" gradientUnits="userSpaceOnUse">
<stop stop-color="#FF1CF7"/>
<stop offset="1" stop-color="#00F0FF"/>
</linearGradient>
<linearGradient id="paint87_linear_303_2" x1="279.862" y1="636.965" x2="796.819" y2="507.784" gradientUnits="userSpaceOnUse">
<stop stop-color="#FF1CF7"/>
<stop offset="1" stop-color="#00F0FF"/>
</linearGradient>
<linearGradient id="paint88_linear_303_2" x1="273.67" y1="634.887" x2="793.249" y2="517.11" gradientUnits="userSpaceOnUse">
<stop stop-color="#FF1CF7"/>
<stop offset="1" stop-color="#00F0FF"/>
</linearGradient>
<linearGradient id="paint89_linear_303_2" x1="267.561" y1="632.815" x2="789.424" y2="526.558" gradientUnits="userSpaceOnUse">
<stop stop-color="#FF1CF7"/>
<stop offset="1" stop-color="#00F0FF"/>
</linearGradient>
<linearGradient id="paint90_linear_303_2" x1="261.534" y1="630.746" x2="785.338" y2="536.109" gradientUnits="userSpaceOnUse">
<stop stop-color="#FF1CF7"/>
<stop offset="1" stop-color="#00F0FF"/>
</linearGradient>
<linearGradient id="paint91_linear_303_2" x1="255.589" y1="628.685" x2="780.981" y2="545.754" gradientUnits="userSpaceOnUse">
<stop stop-color="#FF1CF7"/>
<stop offset="1" stop-color="#00F0FF"/>
</linearGradient>
<linearGradient id="paint92_linear_303_2" x1="249.726" y1="626.631" x2="776.348" y2="555.476" gradientUnits="userSpaceOnUse">
<stop stop-color="#FF1CF7"/>
<stop offset="1" stop-color="#00F0FF"/>
</linearGradient>
<linearGradient id="paint93_linear_303_2" x1="243.945" y1="624.588" x2="771.434" y2="565.261" gradientUnits="userSpaceOnUse">
<stop stop-color="#FF1CF7"/>
<stop offset="1" stop-color="#00F0FF"/>
</linearGradient>
<linearGradient id="paint94_linear_303_2" x1="238.244" y1="622.552" x2="766.234" y2="575.088" gradientUnits="userSpaceOnUse">
<stop stop-color="#FF1CF7"/>
<stop offset="1" stop-color="#00F0FF"/>
</linearGradient>
<linearGradient id="paint95_linear_303_2" x1="232.624" y1="620.529" x2="760.744" y2="584.948" gradientUnits="userSpaceOnUse">
<stop stop-color="#FF1CF7"/>
<stop offset="1" stop-color="#00F0FF"/>
</linearGradient>
<linearGradient id="paint96_linear_303_2" x1="227.084" y1="618.516" x2="754.963" y2="594.818" gradientUnits="userSpaceOnUse">
<stop stop-color="#FF1CF7"/>
<stop offset="1" stop-color="#00F0FF"/>
</linearGradient>
<linearGradient id="paint97_linear_303_2" x1="221.624" y1="616.517" x2="748.89" y2="604.686" gradientUnits="userSpaceOnUse">
<stop stop-color="#FF1CF7"/>
<stop offset="1" stop-color="#00F0FF"/>
</linearGradient>
<linearGradient id="paint98_linear_303_2" x1="216.243" y1="614.533" x2="742.525" y2="614.533" gradientUnits="userSpaceOnUse">
<stop stop-color="#FF1CF7"/>
<stop offset="1" stop-color="#00F0FF"/>
</linearGradient>
</defs>
</svg>
