<svg width="957" height="956" viewBox="0 0 957 956" fill="none" xmlns="http://www.w3.org/2000/svg">
<path opacity="0.0714286" d="M728.755 308.698C745.744 317.595 755.807 335.749 754.349 354.87L729.172 685.056C727.488 707.143 710.908 725.209 689.047 728.779L386.277 778.22C366.279 781.486 346.384 771.842 336.56 754.119L168.779 451.434C158.955 433.711 161.319 411.728 174.686 396.499L377.058 165.936C391.671 149.288 415.777 144.802 435.401 155.078L728.755 308.698Z" stroke="url(#paint0_linear_151_427)" stroke-width="4"/>
<path opacity="0.142857" d="M774.914 420.092C787.076 434.919 789.245 455.562 780.432 472.594L628.243 766.694C618.063 786.367 595.742 796.519 574.224 791.263L276.204 718.473C256.52 713.665 241.974 697.013 239.856 676.861L203.682 332.681C201.563 312.529 212.329 293.217 230.584 284.421L506.956 151.26C526.912 141.645 550.856 146.934 564.904 164.061L774.914 420.092Z" stroke="url(#paint1_linear_151_427)" stroke-width="4"/>
<path opacity="0.214286" d="M773.877 540.669C779.279 559.069 773.21 578.919 758.443 591.153L503.438 802.409C486.38 816.54 461.867 817.164 444.113 803.918L198.226 620.469C181.985 608.351 175.102 587.34 181.027 567.962L282.21 237.008C288.134 217.63 305.589 204.06 325.83 203.096L632.262 188.508C654.389 187.455 674.362 201.679 680.601 222.934L773.877 540.669Z" stroke="url(#paint2_linear_151_427)" stroke-width="4"/>
<path opacity="0.285714" d="M725.81 651.255C723.593 670.303 710.251 686.204 691.877 691.695L374.6 786.518C353.376 792.861 330.569 783.857 319.401 764.727L164.741 499.786C154.525 482.286 156.399 460.256 169.424 444.733L391.877 179.624C404.903 164.101 426.272 158.43 445.28 165.451L733.053 271.756C753.832 279.432 766.66 300.329 764.098 322.332L725.81 651.255Z" stroke="url(#paint3_linear_151_427)" stroke-width="4"/>
<path opacity="0.357143" d="M638.355 734.267C628.872 750.934 610.377 760.358 591.318 758.233L262.213 721.549C240.198 719.095 222.722 701.895 219.917 679.922L181.072 375.612C178.506 355.511 188.839 335.965 206.894 326.765L515.25 169.65C533.304 160.451 555.191 163.58 569.945 177.471L793.305 387.766C809.432 402.951 813.075 427.2 802.12 446.452L638.355 734.267Z" stroke="url(#paint4_linear_151_427)" stroke-width="4"/>
<path opacity="0.428571" d="M525.417 776.509C510.174 788.146 489.468 789.594 472.755 780.192L184.145 617.832C164.839 606.971 155.473 584.31 161.476 562.988L244.623 267.69C250.115 248.185 267.264 234.23 287.478 232.817L632.711 208.676C652.925 207.262 671.849 218.695 680.002 237.246L803.437 518.097C812.35 538.376 806.228 562.121 788.621 575.563L525.417 776.509Z" stroke="url(#paint5_linear_151_427)" stroke-width="4"/>
<path opacity="0.5" d="M404.951 771.265C386.373 776.022 366.747 769.264 355.036 754.078L152.809 491.856C139.282 474.316 139.514 449.796 153.371 432.515L345.29 193.18C357.967 177.372 379.205 171.226 398.365 177.824L725.586 290.495C744.745 297.092 757.698 315.01 757.955 335.272L761.839 642.027C762.12 664.176 747.207 683.641 725.748 689.135L404.951 771.265Z" stroke="url(#paint6_linear_151_427)" stroke-width="4"/>
<path opacity="0.571429" d="M296.11 719.369C277.151 716.488 261.726 702.599 256.879 684.045L173.186 363.652C167.588 342.22 177.382 319.74 196.891 309.247L467.068 163.927C484.914 154.329 506.865 156.97 521.924 170.529L779.108 402.099C794.167 415.658 799.089 437.213 791.408 455.964L675.125 739.852C666.729 760.35 645.396 772.441 623.497 769.113L296.11 719.369Z" stroke="url(#paint7_linear_151_427)" stroke-width="4"/>
<path opacity="0.642857" d="M216.2 629.069C199.873 619.009 191.101 600.198 193.89 581.225L242.037 253.6C245.258 231.684 263.058 214.818 285.115 212.782L590.596 184.581C610.773 182.718 629.947 193.727 638.511 212.092L784.769 525.743C793.333 544.108 789.441 565.873 775.044 580.132L557.082 796.017C541.344 811.605 516.983 814.399 498.124 802.779L216.2 629.069Z" stroke="url(#paint8_linear_151_427)" stroke-width="4"/>
<path opacity="0.714286" d="M177.925 514.727C166.827 499.088 166.102 478.344 176.082 461.968L348.416 179.201C359.944 160.286 382.918 151.716 404.018 158.46L696.233 251.861C715.535 258.031 728.883 275.656 729.59 295.908L741.668 641.772C742.375 662.024 730.289 680.537 711.465 688.038L426.476 801.596C405.899 809.796 382.382 802.849 369.563 784.784L177.925 514.727Z" stroke="url(#paint9_linear_151_427)" stroke-width="4"/>
<path opacity="0.785714" d="M187.37 394.517C183.265 375.785 190.703 356.407 206.288 345.233L475.408 152.28C493.41 139.373 517.907 140.461 534.694 154.913L767.185 355.067C782.541 368.288 787.942 389.728 780.68 408.646L656.657 731.735C649.396 750.653 631.036 762.972 610.778 762.522L304.074 755.699C281.928 755.206 262.996 739.623 258.254 717.985L187.37 394.517Z" stroke="url(#paint10_linear_151_427)" stroke-width="4"/>
<path opacity="0.857143" d="M243.033 287.554C246.574 268.707 260.993 253.776 279.705 249.579L602.824 177.119C624.438 172.272 646.562 182.845 656.368 202.708L792.17 477.792C801.14 495.962 797.734 517.808 783.658 532.384L543.253 781.33C529.177 795.906 507.464 800.073 488.992 791.742L209.336 665.623C189.143 656.516 177.804 634.775 181.894 613.005L243.033 287.554Z" stroke="url(#paint11_linear_151_427)" stroke-width="4"/>
<path opacity="0.928571" d="M336.066 210.843C346.689 194.878 365.796 186.768 384.66 190.216L710.405 249.769C732.195 253.752 748.429 272.13 749.694 294.245L767.217 600.523C768.375 620.754 756.703 639.532 738.051 647.449L419.486 782.672C400.834 790.59 379.218 785.941 365.47 771.055L157.324 545.691C142.294 529.419 140.352 504.975 152.623 486.533L336.066 210.843Z" stroke="url(#paint12_linear_151_427)" stroke-width="4"/>
<path d="M451.676 176.581C467.693 166.036 488.45 166.036 504.467 176.581L781.048 358.678C799.549 370.859 807.312 394.119 799.836 414.97L696.293 703.748C689.454 722.822 671.373 735.547 651.109 735.547H305.034C284.77 735.547 266.689 722.823 259.85 703.748L156.307 414.97C148.831 394.119 156.594 370.859 175.095 358.678L451.676 176.581Z" stroke="url(#paint13_linear_151_427)" stroke-width="4"/>
<defs>
<linearGradient id="paint0_linear_151_427" x1="377.277" y1="297.368" x2="581.57" y2="665.92" gradientUnits="userSpaceOnUse">
<stop stop-color="#FF1CF7"/>
<stop offset="1" stop-color="#00F0FF"/>
</linearGradient>
<linearGradient id="paint1_linear_151_427" x1="455.804" y1="272.329" x2="499.851" y2="691.407" gradientUnits="userSpaceOnUse">
<stop stop-color="#FF1CF7"/>
<stop offset="1" stop-color="#00F0FF"/>
</linearGradient>
<linearGradient id="paint2_linear_151_427" x1="537.871" y1="279.966" x2="414.669" y2="682.94" gradientUnits="userSpaceOnUse">
<stop stop-color="#FF1CF7"/>
<stop offset="1" stop-color="#00F0FF"/>
</linearGradient>
<linearGradient id="paint3_linear_151_427" x1="610.43" y1="319.061" x2="339.568" y2="641.862" gradientUnits="userSpaceOnUse">
<stop stop-color="#FF1CF7"/>
<stop offset="1" stop-color="#00F0FF"/>
</linearGradient>
<linearGradient id="paint4_linear_151_427" x1="661.945" y1="383.399" x2="286.488" y2="574.704" gradientUnits="userSpaceOnUse">
<stop stop-color="#FF1CF7"/>
<stop offset="1" stop-color="#00F0FF"/>
</linearGradient>
<linearGradient id="paint5_linear_151_427" x1="684.227" y1="462.751" x2="263.867" y2="492.145" gradientUnits="userSpaceOnUse">
<stop stop-color="#FF1CF7"/>
<stop offset="1" stop-color="#00F0FF"/>
</linearGradient>
<linearGradient id="paint6_linear_151_427" x1="673.732" y1="544.501" x2="275.303" y2="407.311" gradientUnits="userSpaceOnUse">
<stop stop-color="#FF1CF7"/>
<stop offset="1" stop-color="#00F0FF"/>
</linearGradient>
<linearGradient id="paint7_linear_151_427" x1="632.128" y1="615.652" x2="318.977" y2="333.69" gradientUnits="userSpaceOnUse">
<stop stop-color="#FF1CF7"/>
<stop offset="1" stop-color="#00F0FF"/>
</linearGradient>
<linearGradient id="paint8_linear_151_427" x1="566.031" y1="664.89" x2="387.946" y2="282.984" gradientUnits="userSpaceOnUse">
<stop stop-color="#FF1CF7"/>
<stop offset="1" stop-color="#00F0FF"/>
</linearGradient>
<linearGradient id="paint9_linear_151_427" x1="485.95" y1="684.39" x2="471.244" y2="263.261" gradientUnits="userSpaceOnUse">
<stop stop-color="#FF1CF7"/>
<stop offset="1" stop-color="#00F0FF"/>
</linearGradient>
<linearGradient id="paint10_linear_151_427" x1="404.615" y1="671.048" x2="555.627" y2="277.65" gradientUnits="userSpaceOnUse">
<stop stop-color="#FF1CF7"/>
<stop offset="1" stop-color="#00F0FF"/>
</linearGradient>
<linearGradient id="paint11_linear_151_427" x1="334.96" y1="626.987" x2="627.68" y2="323.867" gradientUnits="userSpaceOnUse">
<stop stop-color="#FF1CF7"/>
<stop offset="1" stop-color="#00F0FF"/>
</linearGradient>
<linearGradient id="paint12_linear_151_427" x1="288.058" y1="559.211" x2="675.946" y2="394.563" gradientUnits="userSpaceOnUse">
<stop stop-color="#FF1CF7"/>
<stop offset="1" stop-color="#00F0FF"/>
</linearGradient>
<linearGradient id="paint13_linear_151_427" x1="271.366" y1="478.498" x2="692.753" y2="478.498" gradientUnits="userSpaceOnUse">
<stop stop-color="#FF1CF7"/>
<stop offset="1" stop-color="#00F0FF"/>
</linearGradient>
</defs>
</svg>
